<?xml version="1.0" encoding="UTF-8"?>
<svg width="140px" height="28px" viewBox="0 0 140 28" version="1.1" xmlns="http://www.w3.org/2000/svg" xmlns:xlink="http://www.w3.org/1999/xlink">
    <!-- Generator: sketchtool 51.1 (57501) - http://www.bohemiancoding.com/sketch -->
    <title>AEFEB238-A877-4E1F-A831-1B4AD1DB7D09</title>
    <desc>Created with sketchtool.</desc>
    <defs>
        <polygon id="path-1" points="0.456306667 0.499053333 14.5365733 0.499053333 14.5365733 6.53333333 0.456306667 6.53333333"></polygon>
        <polygon id="path-3" points="0.752453333 0.56392 11.2 0.56392 11.2 14.7104533 0.752453333 14.7104533"></polygon>
    </defs>
    <g id="Page-1" stroke="none" stroke-width="1" fill="none" fill-rule="evenodd">
        <g id="m_01_welcome" transform="translate(-90.000000, -31.000000)">
            <g id="logo" transform="translate(90.000000, 31.000000)">
                <path d="M7.04078667,13.9192667 C4.69718667,13.9192667 0.000653333333,15.0962 0.000653333333,17.4388667 L0.000653333333,19.9542 L14.08092,19.9542 L14.08092,17.4388667 C14.08092,15.0962 9.38438667,13.9192667 7.04078667,13.9192667" id="Fill-1" fill="#FFFFFF"></path>
                <path d="M17.2203733,5.78274667 C16.8321067,5.36461333 16.53624,4.86061333 16.3663733,4.30061333 L10.9035733,7.48514667 C11.2937067,7.90234667 11.59424,8.40354667 11.76784,8.96168 L17.2203733,5.78274667 Z" id="Fill-3" fill="#6AE5CB"></path>
                <path d="M14.903,13.0325067 L12.9719333,11.8891733 L11.7660667,11.1751733 C11.5868667,11.7323733 11.2807333,12.2317067 10.8859333,12.64424 L16.3291333,15.8801067 C16.5018,15.31544 16.8032667,14.8095733 17.1962,14.3905067 L14.903,13.0325067 Z" id="Fill-5" fill="#6AE5CB"></path>
                <g id="Group-9" transform="translate(13.066667, 20.680053)">
                    <mask id="mask-2" fill="white">
                        <use xlink:href="#path-1"></use>
                    </mask>
                    <g id="Clip-8"></g>
                    <path d="M7.49644,0.499053333 C5.15284,0.499053333 0.456306667,1.67598667 0.456306667,4.01865333 L0.456306667,6.53398667 L14.5365733,6.53398667 L14.5365733,4.01865333 C14.5365733,1.67598667 9.84004,0.499053333 7.49644,0.499053333" id="Fill-7" fill="#FFFFFF" mask="url(#mask-2)"></path>
                </g>
                <path d="M24.0927867,2.98088 C24.0927867,4.62728 22.75812,5.96101333 21.1126533,5.96101333 C19.4662533,5.96101333 18.1315867,4.62728 18.1315867,2.98088 C18.1315867,1.33448 19.4662533,0.000746666667 21.1126533,0.000746666667 C22.75812,0.000746666667 24.0927867,1.33448 24.0927867,2.98088" id="Fill-10" fill="#6AE5CB"></path>
                <path d="M10.00524,10.0912 C10.00524,11.7376 8.67057333,13.0713333 7.02417333,13.0713333 C5.37777333,13.0713333 4.04404,11.7376 4.04404,10.0912 C4.04404,8.4448 5.37777333,7.11013333 7.02417333,7.11013333 C8.67057333,7.11013333 10.00524,8.4448 10.00524,10.0912" id="Fill-12" fill="#6AE5CB"></path>
                <path d="M23.5837467,17.48768 C23.5837467,19.13408 22.24908,20.4687467 20.60268,20.4687467 C18.95628,20.4687467 17.6225467,19.13408 17.6225467,17.48768 C17.6225467,15.84128 18.95628,14.5075467 20.60268,14.5075467 C22.24908,14.5075467 23.5837467,15.84128 23.5837467,17.48768" id="Fill-14" fill="#6AE5CB"></path>
                <polygon id="Fill-16" fill="#FFFFFF" points="39.0306933 16.8460133 44.65776 16.74148 44.65776 20.45708 35.3496267 20.45708 34.9286933 7.13468 44.2368267 6.83601333 44.4822933 10.43028 38.6984267 10.5348133 38.7674933 12.04308 43.5536267 11.8853467 43.71136 15.0932133 38.9606933 15.3209467"></polygon>
                <polygon id="Fill-18" fill="#FFFFFF" points="51.26604 11.1138533 54.9471067 11.07932 51.8447067 20.4574533 48.1981733 20.4574533 45.0957733 11.07932 48.7945733 11.1138533 50.0219067 14.8826533"></polygon>
                <path d="M58.56732,13.5501333 C58.2695867,13.7956 58.0558533,14.1232 57.9270533,14.532 L61.2403867,14.2333333 C61.1470533,13.9188 60.9575867,13.664 60.6710533,13.4717333 C60.38452,13.2785333 60.04852,13.1814667 59.6630533,13.1814667 C59.2299867,13.1814667 58.8650533,13.3046667 58.56732,13.5501333 M62.3099867,11.508 C63.0342533,11.9578667 63.5774533,12.5897333 63.94052,13.4017333 C64.3026533,14.2137333 64.4594533,15.1452 64.41372,16.1970667 L58.01572,16.6525333 C58.1790533,17.0156 58.4207867,17.304 58.7427867,17.5214667 C59.0638533,17.7370667 59.4287867,17.8509333 59.83852,17.8621333 C60.25852,17.8621333 60.6150533,17.7865333 60.9071867,17.6344 C61.19932,17.4832 61.4102533,17.2722667 61.5390533,17.0034667 L64.29052,17.7044 C64.1150533,18.2896 63.80612,18.8094667 63.3618533,19.2649333 C62.9175867,19.7204 62.3827867,20.0769333 61.7574533,20.3345333 C61.1330533,20.5912 60.4871867,20.72 59.8207867,20.72 C58.90892,20.72 58.0707867,20.4894667 57.3054533,20.0265333 C56.54012,19.5654667 55.9315867,18.9401333 55.48172,18.1524 C55.0318533,17.3628 54.8078533,16.4948 54.8078533,15.5493333 C54.8078533,14.6253333 55.0206533,13.8068 55.4471867,13.0946667 C55.87372,12.3816 56.4579867,11.8262667 57.1999867,11.4296 C57.9419867,11.032 58.7810533,10.8332 59.71532,10.8332 C60.72052,10.8332 61.5847867,11.0581333 62.3099867,11.508" id="Fill-20" fill="#FFFFFF"></path>
                <path d="M71.2324667,16.1797067 C71.2436667,15.6187733 71.1503333,15.1875733 70.9515333,14.8823733 C70.7527333,14.57904 70.4615333,14.4269067 70.0760667,14.4269067 C69.6551333,14.4269067 69.3592667,14.56504 69.1903333,14.8385067 C69.0204667,15.1129067 68.9355333,15.5487733 68.9355333,16.1451733 L68.9187333,16.1451733 L68.901,20.4749067 L65.2544667,20.4749067 L65.2022,11.0435733 L68.9355333,10.8503733 L68.9355333,11.55224 C69.6962,10.9679733 70.4671333,10.67584 71.2502,10.67584 C72.4532667,10.67584 73.3558,11.1191733 73.9578,12.0077067 C74.5588667,12.8953067 74.8612667,14.1235733 74.8612667,15.6897067 L74.8780667,20.4217067 L71.1447333,20.4217067 L71.2324667,16.1797067 Z" id="Fill-22" fill="#FFFFFF"></path>
                <path d="M83.22272,19.0900267 C82.8717867,19.63976 82.4340533,20.04296 81.9085867,20.2986933 C81.3821867,20.55536 80.7213867,20.6850933 79.92712,20.6850933 C78.8509867,20.6850933 78.0361867,20.4452267 77.4817867,19.9654933 C76.9264533,19.4876267 76.6492533,18.65696 76.6492533,17.4762933 C76.6492533,17.1496267 76.6772533,16.7230933 76.7369867,16.1966933 L77.08792,13.6374933 L75.6496533,13.65616 L75.5273867,10.8328267 L77.4733867,10.7982933 L77.6656533,9.39549333 L80.9089867,9.23776 L80.7148533,10.7282933 L82.53952,10.6928267 L82.8717867,13.60296 L80.33032,13.6206933 L80.05032,15.8466933 C80.0381867,15.9176267 80.0325867,16.01656 80.0325867,16.14536 C80.0325867,16.50656 80.1305867,16.8052267 80.33032,17.03856 C80.5281867,17.2728267 80.7801867,17.3894933 81.0844533,17.3894933 C81.5744533,17.3894933 81.9841867,17.10856 82.3108533,16.5476267 L83.22272,19.0900267 Z" id="Fill-24" fill="#FFFFFF"></path>
                <polygon id="Fill-26" fill="#6AE5CB" points="99.22612 20.36972 95.52732 20.5442533 95.1950533 15.25132 93.21452 20.43972 90.19892 20.4574533 88.05972 15.2158533 87.9719867 20.4742533 84.3263867 20.31652 84.53732 7.11732 88.4983867 7.29185333 91.6539867 14.5503867 94.6686533 7.06412 98.6306533 7.15185333"></polygon>
                <path d="M106.256173,16.99544 C106.547373,16.6977067 106.693907,16.2907733 106.693907,15.7765067 C106.693907,15.2743733 106.538973,14.8767733 106.23004,14.58464 C105.920173,14.2925067 105.519773,14.1459733 105.029773,14.1459733 C104.57244,14.1459733 104.189773,14.2981067 103.88084,14.6023733 C103.570973,14.90664 103.41604,15.2855733 103.41604,15.74104 C103.41604,16.00984 103.48604,16.27584 103.626973,16.53904 C103.766973,16.80224 103.96204,17.01784 104.21404,17.1877067 C104.464173,17.3575733 104.74884,17.4425067 105.064307,17.4425067 C105.56644,17.4425067 105.96404,17.29224 106.256173,16.99544 Z M106.763907,20.4571733 L106.763907,19.7907733 C106.167507,20.4105067 105.285507,20.71944 104.116973,20.71944 C103.34604,20.71944 102.638573,20.4945067 101.99644,20.0455733 C101.353373,19.5947733 100.844707,18.9909067 100.471373,18.23024 C100.096173,17.47144 99.91044,16.6529067 99.91044,15.7765067 C99.91044,14.91224 100.11204,14.1021067 100.51524,13.3489067 C100.917507,12.5947733 101.446707,11.9937067 102.101907,11.5429067 C102.756173,11.0939733 103.43844,10.86904 104.15244,10.86904 C105.320973,10.86904 106.15724,11.1789067 106.659373,11.7977067 L106.659373,11.1481067 L109.67404,11.1481067 L110.094973,20.4571733 L106.763907,20.4571733 Z" id="Fill-28" fill="#6AE5CB"></path>
                <path d="M118.491613,19.0900267 C118.14068,19.63976 117.702947,20.04296 117.17748,20.2986933 C116.65108,20.55536 115.99028,20.6850933 115.196013,20.6850933 C114.120813,20.6850933 113.30508,20.4452267 112.75068,19.9654933 C112.19628,19.4876267 111.918147,18.65696 111.918147,17.4762933 C111.918147,17.1496267 111.94708,16.7230933 112.00588,16.1966933 L112.356813,13.6374933 L110.91948,13.65616 L110.79628,10.8328267 L112.74228,10.7982933 L112.934547,9.39549333 L116.17788,9.23776 L115.98468,10.7282933 L117.808413,10.6928267 L118.14068,13.60296 L115.599213,13.6206933 L115.319213,15.8466933 C115.30708,15.9176267 115.30148,16.01656 115.30148,16.14536 C115.30148,16.50656 115.39948,16.8052267 115.599213,17.03856 C115.79708,17.2728267 116.04908,17.3894933 116.353347,17.3894933 C116.843347,17.3894933 117.25308,17.10856 117.579747,16.5476267 L118.491613,19.0900267 Z" id="Fill-30" fill="#6AE5CB"></path>
                <path d="M121.3226,19.96596 C120.545133,19.5104933 119.934733,18.8916933 119.490467,18.1086267 C119.047133,17.32556 118.824067,16.4668933 118.824067,15.53076 C118.824067,14.6188933 119.041533,13.8040933 119.473667,13.08636 C119.904867,12.36676 120.5106,11.80676 121.288067,11.4026267 C122.0646,11.00036 122.9438,10.79876 123.925667,10.79876 C125.198733,10.79876 126.231,11.1142267 127.019667,11.7442267 C127.808333,12.3760933 128.303,13.2468933 128.500867,14.3566267 L125.328467,14.9352933 C125.198733,14.6188933 125.003667,14.3836933 124.740467,14.22596 C124.4782,14.0682267 124.182333,13.9888933 123.855667,13.9888933 C123.388067,13.9888933 122.979267,14.1438267 122.628333,14.4536933 C122.2774,14.76356 122.102867,15.17516 122.102867,15.6894267 C122.102867,16.2148933 122.2802,16.6414267 122.636733,16.9690267 C122.993267,17.2966267 123.4114,17.4590267 123.8902,17.4590267 C124.194467,17.4590267 124.4782,17.3750267 124.740467,17.20516 C125.003667,17.0352933 125.205267,16.79916 125.3462,16.4948933 L128.429933,17.1080933 C128.161133,18.19636 127.615133,19.0568933 126.791,19.69436 C125.9678,20.3318267 125.000867,20.64916 123.8902,20.64916 C122.955933,20.64916 122.099133,20.4214267 121.3226,19.96596" id="Fill-32" fill="#6AE5CB"></path>
                <g id="Group-36" transform="translate(128.800000, 5.746720)">
                    <mask id="mask-4" fill="white">
                        <use xlink:href="#path-3"></use>
                    </mask>
                    <g id="Clip-35"></g>
                    <path d="M11.2001867,14.7104533 L7.55458667,14.7104533 L7.30818667,9.97752 C7.28578667,9.50992 7.16538667,9.11605333 6.94885333,8.79405333 C6.73325333,8.47205333 6.39725333,8.31245333 5.94085333,8.31245333 C5.12325333,8.31245333 4.67338667,9.01898667 4.59218667,10.4329867 L4.62672,14.69272 L0.945653333,14.6404533 L0.752453333,0.56392 L4.50352,1.01938667 L4.55672,5.94552 C5.17552,5.38458667 6.02858667,5.10365333 7.11592,5.10365333 C7.73472,5.10365333 8.34512,5.26138667 8.94712,5.57778667 C9.54912,5.89325333 10.0456533,6.35152 10.4385867,6.95258667 C10.8296533,7.55552 11.03592,8.25365333 11.0601867,9.04885333 L11.2001867,14.7104533 Z" id="Fill-34" fill="#6AE5CB" mask="url(#mask-4)"></path>
                </g>
                <path d="M21.114238,6.84637333 C18.7718802,6.84637333 14.077836,8.02330667 14.077836,10.3659733 L14.0703733,10.62824 L17.9705718,12.8813067 L28.15064,12.8813067 L28.15064,10.3659733 C28.15064,8.02330667 23.4565959,6.84637333 21.114238,6.84637333" id="Fill-37" fill="#FFFFFF"></path>
            </g>
        </g>
    </g>
</svg>